<?xml version="1.0" encoding="UTF-8" standalone="no"?>
<!-- Created with Inkscape (http://www.inkscape.org/) -->

<svg
   xmlns:dc="http://purl.org/dc/elements/1.1/"
   xmlns:cc="http://creativecommons.org/ns#"
   xmlns:rdf="http://www.w3.org/1999/02/22-rdf-syntax-ns#"
   xmlns:svg="http://www.w3.org/2000/svg"
   xmlns="http://www.w3.org/2000/svg"
   xmlns:sodipodi="http://sodipodi.sourceforge.net/DTD/sodipodi-0.dtd"
   xmlns:inkscape="http://www.inkscape.org/namespaces/inkscape"
   width="21.043053mm"
   height="20.442852mm"
   viewBox="0 0 74.561997 72.435302"
   id="svg2"
   version="1.1"
   inkscape:version="0.91 r13725"
   sodipodi:docname="logo.svg">
  <defs
     id="defs4" />
  <sodipodi:namedview
     id="base"
     pagecolor="#ffffff"
     bordercolor="#666666"
     borderopacity="1.0"
     inkscape:pageopacity="0.0"
     inkscape:pageshadow="2"
     inkscape:zoom="7.9195959"
     inkscape:cx="7.8602415"
     inkscape:cy="25.825409"
     inkscape:document-units="px"
     inkscape:current-layer="g4212"
     showgrid="false"
     inkscape:window-width="1920"
     inkscape:window-height="1021"
     inkscape:window-x="-2"
     inkscape:window-y="32"
     inkscape:window-maximized="1"
     fit-margin-top="0"
     fit-margin-left="0"
     fit-margin-right="0"
     fit-margin-bottom="0" />
  <metadata
     id="metadata7">
    <rdf:RDF>
      <cc:Work
         rdf:about="">
        <dc:format>image/svg+xml</dc:format>
        <dc:type
           rdf:resource="http://purl.org/dc/dcmitype/StillImage" />
        <dc:title></dc:title>
      </cc:Work>
    </rdf:RDF>
  </metadata>
  <g
     inkscape:label="Livello 1"
     inkscape:groupmode="layer"
     id="layer1"
     transform="translate(-334.51912,-480.3514)">
    <g
       id="g4212"
       transform="translate(-7.5000003,-5.1785715)">
      <path
         style="fill:#fbfaf6"
         d="m 350.18631,512.04776 1.64149,-23.87906 30.19252,-0.12627 32.08654,0 0.75762,12.38857 -1.38896,37.01104 -13.65127,18.18275 -55.06751,-20.58186 z"
         id="path4228"
         inkscape:connector-curvature="0"
         sodipodi:nodetypes="ccccccccc" />
      <path
         style="fill:#f0ecd2"
         d="m 399.20001,557.69729 c -0.82278,-0.26539 -8.48633,-2.94393 -36.11002,-12.62104 -17.2618,-6.04714 -18.27581,-6.44214 -18.54894,-7.22564 -0.15891,-0.45585 -0.75065,-1.10124 -1.31498,-1.43421 -0.76359,-0.45052 -1.03135,-0.81901 -1.04673,-1.4405 -0.0114,-0.45931 -0.0726,-1.23423 -0.13614,-1.72203 -0.0785,-0.60309 0.3942,-2.04317 1.47714,-4.5 1.8693,-4.24083 2.58357,-6.32917 3.69836,-10.81309 l 0.82044,-3.3 0.005,-13.86419 c 0.005,-12.90304 0.0426,-13.90134 0.54091,-14.4 0.50468,-0.50499 2.38585,-0.54831 32.7,-0.75313 22.30042,-0.15068 32.46424,-0.12031 33.14183,0.099 0.53751,0.17399 1.11941,0.58188 1.2931,0.90642 0.74177,1.38602 1.18357,31.72101 0.57445,39.44332 -0.83135,10.53958 -3.60165,18.01944 -9.5994,25.91856 -2.03307,2.67758 -5.50942,6.01044 -6.23143,5.97422 -0.28272,-0.0142 -0.85153,-0.13465 -1.26403,-0.26771 z m -8.65041,-11.89443 c 1.65738,-0.46504 2.09737,-1.01208 0.81404,-1.01208 -0.33053,0 -2.58382,-0.52932 -5.0073,-1.17627 -6.50332,-1.73606 -5.96365,-1.69063 -6.65126,-0.55995 l -0.59331,0.97562 0.74496,0.39032 c 0.68324,0.35799 3.65556,1.32752 5.09328,1.66136 1.3401,0.31117 3.96176,0.18055 5.59959,-0.279 z m 4.67646,-2.55813 c 0.19033,-0.19033 0.7414,-0.33481 1.22461,-0.32107 0.60052,0.0171 1.18064,-0.27038 1.83318,-0.90835 0.98639,-0.96438 2.58591,-3.45478 2.36245,-3.67824 -0.16907,-0.16907 -11.47264,-3.01353 -13.0027,-3.27203 l -1.20324,-0.20329 -1.47891,3.00578 c -0.8134,1.65318 -1.41873,3.05881 -1.34518,3.12362 0.21585,0.19019 5.724,1.96295 7.03374,2.26376 1.73187,0.39775 4.17355,0.39232 4.57605,-0.0102 z m 5.97569,-0.70256 c 3.02729,-0.89901 5.06077,-3.50916 6.96614,-8.94169 2.0977,-5.98086 2.2104,-7.03679 2.35189,-22.0347 l 0.12806,-13.575 -2.12391,-0.045 c -1.16816,-0.0248 -2.26186,-0.0585 -2.43047,-0.075 -0.1686,-0.0165 -0.70407,0.66604 -1.18994,1.51676 -0.96893,1.69654 -0.86788,1.90324 0.93044,1.90324 0.48669,0 0.95535,0.18365 1.04149,0.4081 0.0861,0.22446 0.0247,5.72571 -0.13646,12.225 -0.25132,10.1335 -0.37944,12.18017 -0.89936,14.3669 -1.02773,4.3225 -3.70586,10.56176 -5.59692,13.03918 -1.45903,1.91143 -1.44694,1.92671 0.95904,1.21221 z m -18.80174,-3.45139 c 0.33671,-0.66 0.55529,-1.2 0.48573,-1.2 -0.13558,0 -1.38573,2.04532 -1.38573,2.26715 0,0.4161 0.36272,-0.014 0.9,-1.06715 z m -7.65505,-2.39003 c 0.41528,-0.81951 0.75275,-1.59576 0.74994,-1.725 -0.006,-0.29014 -1.78267,2.67747 -1.78977,2.99003 -0.0124,0.54557 0.33891,0.11818 1.03983,-1.26503 z m 27.88976,-3.14822 c 0.42091,-1.11825 0.7652,-2.11836 0.76509,-2.22247 -1.1e-4,-0.1041 -0.69399,1.00609 -1.54194,2.4671 -1.2239,2.10876 -1.45619,2.70924 -1.1268,2.91282 0.48836,0.30182 0.78975,-0.19809 1.90365,-3.15745 z m -8.7321,-0.99418 c 1.10295,-2.81124 0.99944,-2.95381 -0.40261,-0.55454 -1.30065,2.22574 -1.41199,2.58697 -0.7974,2.58697 0.22144,0 0.76144,-0.91459 1.20001,-2.03243 z m -33.49444,0.53243 c 0.18684,-0.495 0.28741,-0.9 0.22348,-0.9 -0.0639,0 -0.32567,0.405 -0.58165,0.9 -0.25597,0.495 -0.35654,0.9 -0.22347,0.9 0.13306,0 0.3948,-0.405 0.58164,-0.9 z m 25.7786,-2.34027 c 0.27206,-0.94035 0.55789,-1.91223 0.63518,-2.15973 0.0773,-0.2475 -0.43026,0.4767 -1.12789,1.60932 -0.97902,1.58947 -1.17764,2.11542 -0.87056,2.3052 0.61018,0.37712 0.82735,0.0976 1.36327,-1.75479 z m -32.47948,0.0531 c 0.68858,-1.44396 0.43417,-1.62166 -0.3701,-0.25852 -0.70546,1.19567 -0.74924,1.34566 -0.39275,1.34566 0.13444,0 0.47772,-0.48921 0.76285,-1.08714 z m 24.16435,-1.38786 c 0.6945,-2.41529 0.67105,-2.46962 -0.35604,-0.825 -1.03144,1.65157 -1.11587,2.1 -0.39538,2.1 0.21164,0 0.54979,-0.57375 0.75142,-1.275 z m 26.85278,-3.075 0.19758,-1.8 -1.05422,1.65 c -0.57982,0.9075 -1.05727,1.7556 -1.061,1.88467 -0.004,0.12907 0.29697,0.34889 0.66822,0.48849 0.85347,0.32093 0.99849,0.0629 1.24942,-2.22316 z m -34.3845,1.14026 c 0.45213,-1.47318 0.27603,-1.55582 -0.50273,-0.23592 -0.74908,1.2696 -0.76251,1.34566 -0.23752,1.34566 0.21981,0 0.55293,-0.49938 0.74025,-1.10974 z m -6.74354,-2.25696 c 0.25862,-1.02668 0.42659,-1.91033 0.37327,-1.96365 -0.0533,-0.0533 -0.52996,0.67027 -1.05918,1.608 -0.76028,1.34714 -0.87809,1.75829 -0.56134,1.95906 0.67829,0.42995 0.76223,0.32203 1.24725,-1.60341 z m 32.47138,0.20284 c 0.11249,-0.75012 0.13774,-1.43065 0.0561,-1.51228 -0.20885,-0.20886 -1.69844,2.37455 -1.52809,2.65019 0.0768,0.12427 0.3934,0.22595 0.70355,0.22595 0.4392,0 0.60915,-0.30163 0.76844,-1.36386 z m -39.61522,-1.78614 0.19923,-1.2 -0.64386,1.01181 c -0.35412,0.55649 -0.56384,1.22031 -0.46605,1.47516 0.26338,0.68636 0.68106,0.0961 0.91068,-1.28697 z m 31.59026,-0.38017 -0.0928,-1.11983 -0.675,1.14215 c -0.81264,1.37505 -0.83421,1.63021 -0.15,1.77479 0.71598,0.1513 1.02855,-0.46074 0.9178,-1.79711 z m -8.3428,-0.48233 c 0,-0.22687 0.0766,-0.86812 0.17022,-1.425 l 0.17021,-1.0125 -0.76868,1.2 c -0.92723,1.44753 -0.94831,1.65 -0.17175,1.65 0.33,0 0.6,-0.18562 0.6,-0.4125 z m -7.3841,-2.8875 c 0.20283,-1.42155 0.0491,-1.35109 -0.90517,0.41481 -0.38474,0.71202 -0.3965,0.90858 -0.0665,1.11251 0.55443,0.34266 0.7484,0.0378 0.9717,-1.52732 z m -7.04734,-1.95 0.0284,-0.9 -0.7391,1.2 c -0.88912,1.44357 -0.90713,1.57595 -0.23283,1.71171 0.57891,0.11656 0.89792,-0.56358 0.94356,-2.01171 z m 40.06477,1.12089 c -0.009,-0.53399 -0.0429,-2.2161 -0.075,-3.73802 l -0.0583,-2.76714 -1.91543,3.29214 -1.91544,3.29213 1.54044,0.5102 c 2.07472,0.68715 2.44414,0.59734 2.42376,-0.58931 z m -8.40833,-1.07089 c -0.0137,-0.275 -0.0475,-1.81542 -0.075,-3.42317 l -0.05,-2.92316 -1.74629,2.99816 c -0.96046,1.649 -1.71439,3.04299 -1.6754,3.09778 0.12965,0.18213 2.96668,0.89502 3.27169,0.82211 0.165,-0.0394 0.28875,-0.29672 0.275,-0.57172 z m -38.68482,-1.27526 c 0.11512,-0.92139 0.14712,-1.73744 0.0711,-1.81344 -0.076,-0.076 -0.54329,0.57661 -1.03841,1.45026 -0.90897,1.60388 -0.85379,2.02335 0.26754,2.03385 0.37125,0.003 0.5413,-0.40252 0.69975,-1.67067 z m 30.45982,-2.62474 c 0,-1.705 -0.0898,-3.18978 -0.19951,-3.29951 -0.10974,-0.10974 -0.93336,1.09164 -1.83028,2.66972 -0.89691,1.57809 -1.58338,2.90998 -1.52548,2.95977 0.17103,0.14707 2.46021,0.70535 3.03027,0.73902 0.46813,0.0277 0.525,-0.30481 0.525,-3.069 z m -8.12109,-0.275 c -0.0357,-3.17228 -0.28482,-3.29893 -1.6957,-0.86199 l -1.23459,2.13243 0.95069,0.27523 c 1.94173,0.56212 2.00277,0.51446 1.9796,-1.54567 z m -7.50881,-1.05 c -0.0164,-0.94875 -0.12295,-2.05894 -0.23666,-2.46709 -0.18986,-0.68145 -0.29774,-0.57939 -1.3201,1.24874 -0.61234,1.09496 -1.11334,2.0663 -1.11334,2.15852 0,0.17149 1.64923,0.70902 2.325,0.75777 0.26283,0.019 0.36606,-0.48892 0.3451,-1.69794 z m -7.37863,-2.15439 -0.24147,-2.16646 -1.14811,1.99982 c -0.63146,1.0999 -1.10396,2.04308 -1.05,2.09596 0.28088,0.27526 2.23187,0.63667 2.43958,0.45191 0.13281,-0.11812 0.13281,-1.18968 0,-2.38123 z m -6.99147,0.0169 c 0,-0.63937 -0.0874,-1.59969 -0.1943,-2.13403 l -0.19431,-0.97152 -1.00194,1.75902 c -1.16408,2.04369 -1.18023,2.12041 -0.48445,2.30223 1.57121,0.4106 1.875,0.25576 1.875,-0.9557 z m 46.6065,-3.79341 -0.2565,-3.81293 -2.0353,3.52412 c -1.11942,1.93826 -1.98629,3.57313 -1.92637,3.63304 0.28256,0.28257 3.9924,0.89348 4.21817,0.69462 0.14199,-0.12507 0.14199,-1.92807 0,-4.03885 z m -8.37525,2.15591 c -0.0103,-0.44 -0.0441,-2.11271 -0.075,-3.71713 l -0.0563,-2.91714 -1.91431,3.29214 c -1.05287,1.81067 -1.87313,3.33812 -1.8228,3.39433 0.15729,0.17566 3.27133,0.88129 3.58711,0.81284 0.165,-0.0358 0.29156,-0.42504 0.28125,-0.86504 z m -8.23125,-3.63229 c 0,-1.88777 -0.12832,-3.51161 -0.28516,-3.60854 -0.24272,-0.15001 -3.26499,4.58006 -3.77405,5.90667 -0.13005,0.33891 0.20782,0.51747 1.41926,0.75007 2.8714,0.5513 2.63995,0.81854 2.63995,-3.0482 z m -8.1,0.32416 c 0,-1.04947 -0.0864,-2.53826 -0.19193,-3.30842 l -0.19193,-1.40028 -0.94466,1.58341 c -0.51956,0.87088 -1.31162,2.21654 -1.76013,2.99036 l -0.81547,1.40694 1.27706,0.28593 c 2.62565,0.58789 2.62706,0.58705 2.62706,-1.55794 z"
         id="path4226"
         inkscape:connector-curvature="0" />
      <path
         style="fill:#d5d0b4"
         d="m 372.65502,548.08728 c -16.84681,-5.90783 -27.44046,-9.77073 -27.67501,-10.09149 -0.209,-0.28583 -0.38,-0.68507 -0.38,-0.8872 0,-0.20213 -0.40166,-0.54531 -0.89258,-0.76261 -0.49091,-0.2173 -1.0207,-0.73487 -1.1773,-1.15015 -0.45746,-1.21311 -0.66995,-2.94073 -0.37541,-3.05226 0.5291,-0.20035 2.42515,-4.41578 3.77002,-8.38179 0.76051,-2.24275 1.64852,-5.6794 2.00799,-7.771 0.61145,-3.55786 0.6358,-4.39344 0.47516,-16.30792 l -0.16932,-12.55791 0.68511,-0.68512 0.68512,-0.68511 32.07061,-0.12476 c 34.34477,-0.13361 33.23318,-0.17729 34.07654,1.33893 0.28345,0.50957 0.40148,5.16538 0.4886,19.27189 0.0991,16.04386 0.047,19.09474 -0.37863,22.2 -1.26771,9.24793 -3.76579,15.64487 -8.72795,22.35 -2.05091,2.77131 -6.12721,6.90961 -6.78098,6.88415 -0.22384,-0.009 -12.68973,-4.32316 -27.70197,-9.58765 z m 29.49178,4.39016 c 1.34927,-1.38234 2.45321,-2.60405 2.45321,-2.71491 0,-0.22832 0.0848,-0.27894 -3.15,1.88012 l -2.4,1.60187 -2.16534,-0.10721 c -1.19094,-0.059 -2.06844,-0.0111 -1.95,0.10638 0.23719,0.23526 3.92362,1.65838 4.43713,1.71292 0.17698,0.0188 1.42573,-1.09683 2.775,-2.47917 z m -2.86215,-0.59783 c 1.16754,-0.49729 4.83537,-3.39835 5.50467,-4.3539 l 0.48113,-0.68692 -1.1762,0.74251 c -0.64692,0.40837 -2.18152,1.25873 -3.41022,1.88967 -2.21577,1.13781 -2.26955,1.14852 -6.58402,1.31119 l -4.35,0.164 1.8,0.40933 c 0.99,0.22514 2.745,0.50934 3.9,0.63158 1.155,0.12223 2.27309,0.24057 2.48464,0.26298 0.21155,0.0224 0.81905,-0.1443 1.35,-0.37044 z m 0.66536,-3.40152 c 0.99,-0.51633 2.07,-1.16322 2.4,-1.43754 0.6,-0.49875 0.6,-0.49875 0,-0.27656 -1.37494,0.50915 -8.23435,2.24462 -9.9,2.50475 -1.5661,0.24458 -1.31272,0.27247 1.95,0.21462 3.5543,-0.063 3.84394,-0.11549 5.55,-1.00527 z m -9.18792,-2.35384 c 0.86404,-0.25659 1.86562,-0.76284 2.22573,-1.125 1.14515,-1.15166 2.87042,-1.72566 5.47796,-1.82254 3.08442,-0.1146 4.67573,-0.84071 6.70252,-3.05834 1.55579,-1.70229 2.65629,-4.09323 4.1084,-8.92588 1.39828,-4.65353 1.62331,-7.56376 1.62331,-20.99362 l 0,-12.46492 -1.575,-0.1685 c -1.81822,-0.19452 -38.62159,-2.05275 -58.425,-2.94992 l -1.65,-0.0747 -0.18344,10.05 c -0.17317,9.4869 -0.22784,10.2349 -0.97588,13.35 -0.43584,1.815 -1.08091,4.1775 -1.4335,5.25 -0.64537,1.96311 -0.81985,2.38399 -2.78975,6.72939 -0.59326,1.30867 -0.97176,2.48628 -0.84112,2.61692 0.13063,0.13063 4.62191,1.71319 9.98061,3.51678 5.35869,1.8036 13.79308,4.66118 18.74308,6.35019 4.95,1.68901 9.8775,3.31385 10.95,3.61077 2.43291,0.67355 5.99947,0.72195 8.06208,0.10942 z m -13.01208,-5.54828 c -2.145,-0.63109 -7.41,-2.15736 -11.7,-3.39171 -20.74642,-5.9693 -19.65,-5.61624 -19.65,-6.32745 0,-0.22707 0.45068,-1.47107 1.00151,-2.76445 0.55083,-1.29336 1.42374,-3.70158 1.93979,-5.35158 1.82694,-5.8413 1.95374,-6.81104 2.13787,-16.35 l 0.17083,-8.85 1.8,0.0204 c 0.99,0.0112 6.1875,0.38716 11.55,0.83548 5.3625,0.44833 14.61,1.22212 20.55,1.71956 5.94,0.49743 11.61,0.97193 12.6,1.05443 0.99,0.0825 3.2175,0.31205 4.95,0.5101 l 3.15,0.36008 0.0411,4.54383 c 0.0226,2.49911 -0.0578,6.48161 -0.17879,8.85 l -0.21992,4.30617 -0.0462,-3.63827 c -0.0318,-2.501 -0.16378,-3.73583 -0.42233,-3.95041 -0.20686,-0.17168 -1.92811,-0.35696 -3.825,-0.41173 l -3.44889,-0.0996 0,3.74927 0,3.74927 3.398,0.73353 c 2.64164,0.57026 3.51961,0.65759 3.94435,0.39233 0.68485,-0.42769 0.85925,0.13334 0.58304,1.8756 -0.13168,0.83058 -0.20335,0.95733 -0.23281,0.41173 -0.0234,-0.43354 -0.21133,-0.92542 -0.41758,-1.09306 -0.29613,-0.24069 -6.83479,-1.32014 -7.02242,-1.15932 -0.10108,0.0867 -1.08699,5.77989 -1.11886,6.46104 -0.031,0.66139 0.21198,0.79086 2.96628,1.58089 1.65,0.47327 3.43875,0.87134 3.975,0.88461 1.0304,0.0255 1.13278,0.15025 0.69327,0.84482 -0.21747,0.34369 -0.362,0.35647 -0.71528,0.0633 -0.37414,-0.31051 -7.10157,-1.66205 -7.27654,-1.46186 -0.19373,0.22166 -2.52645,6.16708 -2.52645,6.4392 0,0.18176 0.68375,0.55758 1.51944,0.83515 0.83569,0.27757 1.46303,0.56108 1.39409,0.63002 -0.12076,0.12075 -4.16605,-0.739 -4.35198,-0.92493 -0.0502,-0.0502 0.23024,-0.56487 0.62311,-1.14381 0.98875,-1.45699 2.43781,-5.91527 2.049,-6.30408 -0.37685,-0.37685 -6.41958,-1.43037 -6.66022,-1.16117 -0.30563,0.34188 -2.07344,5.48351 -2.07344,6.03052 0,0.3775 0.49879,0.67302 1.80192,1.06757 2.28157,0.69081 2.13787,0.90923 -0.2372,0.36054 -1.17463,-0.27137 -1.98204,-0.31931 -2.30776,-0.13703 -0.35113,0.1965 -0.60658,0.14693 -0.85398,-0.16571 -0.33821,-0.42742 -6.23262,-1.8485 -6.83475,-1.64779 -0.43489,0.14497 -3.26838,6.20391 -2.98359,6.37992 0.77255,0.47746 5.50664,1.95949 6.25925,1.95949 0.51607,0 0.96469,0.18963 1.0646,0.45 0.25772,0.67161 -0.63514,0.53662 -5.05849,-0.76481 z m -3.59306,-1.97936 c 0.63491,-0.24364 3.19489,-5.44511 3.0789,-6.25583 -0.0722,-0.5048 -0.56989,-0.70038 -3.13658,-1.2327 -1.6779,-0.34798 -3.1629,-0.55048 -3.3,-0.45 -0.29499,0.21622 -2.926,5.45845 -2.93977,5.85744 -0.005,0.15111 1.27301,0.71426 2.84051,1.25144 1.5675,0.53719 2.87271,0.98731 2.90046,1.00026 0.0278,0.013 0.27818,-0.0638 0.55648,-0.17061 z m -5.74452,-5.05761 c 0.76317,-1.56848 1.38758,-2.97802 1.38758,-3.1323 0,-0.43208 -0.31291,-0.5504 -3.09506,-1.17033 -1.90168,-0.42373 -2.65633,-0.48641 -2.84394,-0.23619 -0.43525,0.58053 -2.56472,5.58688 -2.4326,5.719 0.33331,0.33331 4.11785,1.63236 4.80902,1.6507 0.70331,0.0187 0.93566,-0.28375 2.175,-2.83088 z m -7.11741,-0.87961 c 1.22806,-2.31038 1.78536,-4.00873 1.43098,-4.36088 -0.37708,-0.37472 -5.43483,-1.44948 -5.78952,-1.23027 -0.41497,0.25647 -2.49519,5.09639 -2.36208,5.49571 0.12781,0.38344 4.63537,2.017 5.32561,1.93002 0.2475,-0.0312 0.87526,-0.85675 1.39501,-1.83458 z m 25.14865,-0.87006 c 0.97032,-2.56089 1.57436,-4.94579 1.34616,-5.31502 -0.13827,-0.22373 -0.002,-0.7018 0.33082,-1.15736 0.75966,-1.04102 1.18062,-6.3136 0.54376,-6.8109 -0.39769,-0.31054 -6.50591,-1.2035 -6.67562,-0.97591 -0.19697,0.26416 -1.08423,6.02529 -0.95912,6.22772 0.0762,0.12327 1.43097,0.6058 3.01065,1.07229 1.57969,0.46649 2.81808,0.90225 2.75198,0.96834 -0.0661,0.0661 -1.37522,-0.0818 -2.90916,-0.32876 -1.53394,-0.24692 -2.88949,-0.38682 -3.01233,-0.3109 -0.36344,0.22462 -2.15126,5.85115 -1.9306,6.0759 0.35024,0.35673 6.2923,2.08612 6.67009,1.94128 0.19816,-0.076 0.57318,-0.69998 0.83337,-1.38668 z m -31.7488,-1.62355 c 0.5834,-1.27875 1.08196,-2.6625 1.10793,-3.075 0.043,-0.68337 -0.12603,-0.79286 -1.90279,-1.23244 -1.0725,-0.26534 -2.44136,-0.57242 -3.0419,-0.68239 l -1.09191,-0.19994 -1.09145,2.60733 c -0.60029,1.43403 -1.04827,2.73685 -0.9955,2.89516 0.121,0.363 4.33487,1.95442 5.26283,1.98756 0.57969,0.0207 0.8643,-0.35279 1.75279,-2.30028 z m 23.14204,0.75 c 0.52036,-0.62872 1.89265,-5.79894 1.68369,-6.34347 -0.11825,-0.30814 -0.004,-0.65322 0.2887,-0.87094 0.55911,-0.41608 1.17121,-5.7251 0.75511,-6.54937 -0.21382,-0.42356 -2.76203,-0.86114 -5.8112,-0.9979 -0.28591,-0.0128 -1.29995,4.10997 -1.33574,5.43073 -0.015,0.55423 0.36512,0.7614 2.72584,1.48557 1.50881,0.46283 2.62256,0.88065 2.475,0.92849 -0.14757,0.0478 -1.38442,-0.0916 -2.74856,-0.30997 -1.76933,-0.28316 -2.55326,-0.30395 -2.73495,-0.0725 -0.29996,0.38206 -1.83479,4.96564 -1.83479,5.47937 0,0.19411 1.24875,0.75328 2.775,1.24261 3.27449,1.04982 3.36005,1.06295 3.7619,0.57742 z m -7.23549,-2.625 c 0.19637,-0.4125 0.62755,-1.72793 0.95819,-2.92319 0.52279,-1.88985 0.54494,-2.22941 0.16987,-2.60449 -0.37508,-0.37507 -0.35535,-0.45541 0.15133,-0.61623 0.41854,-0.13284 0.66664,-0.62447 0.88086,-1.7455 0.60892,-3.18647 0.67556,-4.30694 0.27479,-4.61986 -0.35948,-0.28068 -5.6328,-1.1332 -5.76343,-0.93175 -0.25528,0.39369 -1.01466,5.51914 -0.84301,5.68992 0.121,0.12038 1.23249,0.5603 2.46999,0.9776 l 2.25,0.75874 -1.95,-0.16094 c -1.0725,-0.0885 -2.21605,-0.18644 -2.54123,-0.21762 -0.48043,-0.0461 -0.71547,0.3254 -1.2542,1.98217 -1.2921,3.97358 -1.38082,3.66435 1.30072,4.5339 2.77527,0.89994 3.41893,0.87967 3.89612,-0.12275 z m -6.4496,-3.075 c 0.368,-1.19625 0.6699,-2.715 0.67089,-3.375 9.9e-4,-0.66 0.17585,-1.335 0.38858,-1.5 0.21273,-0.165 0.54422,-1.42067 0.73666,-2.79037 0.29291,-2.08487 0.28086,-2.55771 -0.074,-2.9039 -0.34775,-0.33923 -4.07248,-1.05573 -5.48824,-1.05573 -0.23899,0 -0.50794,0.96816 -0.75618,2.72211 -0.2119,1.49716 -0.33897,2.75842 -0.28238,2.80281 0.0566,0.0444 1.25039,0.40569 2.65289,0.80289 2.83226,0.80213 2.41257,1.1079 -0.82817,0.60336 -1.10553,-0.17212 -2.09935,-0.21579 -2.20848,-0.097 -0.42516,0.46259 -1.68199,5.18075 -1.42274,5.34098 0.68502,0.42336 4.39251,1.58251 5.12576,1.60257 0.75673,0.0207 0.86523,-0.13653 1.48544,-2.15267 z m 31.9802,1.8 c 0.63095,-0.77455 1.26248,-6.91436 0.74299,-7.22347 -0.34624,-0.20602 -6.64579,-0.93074 -6.79483,-0.7817 -0.23356,0.23357 -0.97214,6.27041 -0.79833,6.52524 0.17982,0.26364 5.24001,1.79458 6.05643,1.83234 0.26855,0.0124 0.62573,-0.14616 0.79374,-0.35241 z m -39.3939,-2.40028 c 0.52192,-1.24913 1.22984,-4.65677 1.01255,-4.87406 -0.25595,-0.25595 -5.38447,-1.10187 -5.77401,-0.9524 -0.33521,0.12864 -1.87236,4.92206 -1.64198,5.12034 0.30686,0.2641 4.70081,1.63697 5.30564,1.65772 0.50608,0.0174 0.79906,-0.2366 1.0978,-0.9516 z m 40.6573,-9.48645 c -0.003,-1.91855 -0.12335,-3.67579 -0.26849,-3.90499 -0.26832,-0.4237 -6.06476,-1.09807 -6.84961,-0.7969 -0.27297,0.10475 -0.37731,1.10399 -0.37731,3.61362 0,4.00265 -0.38568,3.55658 3.9,4.51062 1.85561,0.41308 2.98084,0.53526 3.225,0.35018 0.2627,-0.19914 0.37363,-1.32887 0.37041,-3.77253 z m -38.79455,2.36173 c 0.55387,-2.13114 0.49744,-4.12755 -0.12586,-4.45305 -0.28875,-0.15078 -1.69035,-0.36883 -3.11467,-0.48454 l -2.58966,-0.21038 -0.42989,2.34898 c -0.23643,1.29195 -0.34718,2.4499 -0.24609,2.57323 0.28686,0.35 4.88454,1.7044 5.55531,1.6365 0.44068,-0.0446 0.69316,-0.41921 0.95086,-1.41074 z m 30.40694,-0.15939 c 0.28669,-0.34544 0.33064,-1.29294 0.17718,-3.81955 -0.11224,-1.84809 -0.30229,-3.45837 -0.42232,-3.57841 -0.26792,-0.26792 -6.38233,-0.8659 -6.72,-0.65721 -0.13346,0.0825 -0.24266,1.68342 -0.24266,3.55764 l 0,3.40767 2.925,0.64605 c 1.60875,0.35533 3.06,0.69326 3.225,0.75095 0.5488,0.19187 0.67377,0.15559 1.0578,-0.30714 z m -8.17366,-4.67492 c 0.0617,-2.5506 -0.0182,-3.55848 -0.3,-3.78264 -0.21128,-0.16807 -1.70039,-0.39866 -3.30914,-0.51241 l -2.925,-0.20684 0,3.32752 c 0,2.74737 0.0821,3.35903 0.47113,3.5083 0.90378,0.34681 5.08236,1.2521 5.52887,1.19783 0.36544,-0.0444 0.46581,-0.70807 0.53414,-3.53176 z m -7.49962,-1.39069 -0.0845,-3.525 -1.35,-0.19353 c -0.7425,-0.10644 -2.0925,-0.23386 -3,-0.28316 l -1.65,-0.0896 0,3.27674 0,3.27674 2.1,0.49794 c 1.155,0.27386 2.54304,0.513 3.08452,0.53141 l 0.98452,0.0335 -0.0845,-3.525 z m -7.28452,-1.1127 0,-3.2877 -1.02547,-0.20973 c -0.56401,-0.11536 -1.91401,-0.25589 -3,-0.3123 l -1.97453,-0.10257 -0.0853,3.06065 -0.0853,3.06066 1.13533,0.28611 c 0.62444,0.15736 1.67534,0.42271 2.33534,0.58968 0.66,0.16696 1.5375,0.28092 1.95,0.25324 l 0.75,-0.0503 0,-3.2877 z m -7.10214,1.85053 c 0.5204,-0.62704 0.0804,-5.87943 -0.51815,-6.18546 -0.26384,-0.13489 -1.65104,-0.33126 -3.08267,-0.43637 l -2.60295,-0.19111 -0.10212,2.62506 c -0.0562,1.44378 -0.0545,2.78627 0.004,2.98331 0.0582,0.19705 1.20794,0.6214 2.55507,0.94301 3.02834,0.72297 3.34585,0.74514 3.74719,0.26156 z m 46.78542,-4.94407 c 0.0752,-3.86656 0.0316,-4.30243 -0.45,-4.5 -0.2933,-0.12032 -2.01828,-0.21876 -3.83328,-0.21876 l -3.3,0 -0.0846,3.72536 c -0.0512,2.25338 0.0365,3.84648 0.2219,4.0319 0.3598,0.3598 5.52054,1.37014 6.61274,1.29461 l 0.75,-0.0519 0.0833,-4.28124 z m -8.39907,-0.77692 c 0.0565,-2.58862 -0.0296,-3.99533 -0.26173,-4.275 -0.25828,-0.31121 -1.21318,-0.41684 -3.76817,-0.41684 l -3.42223,0 0.084,3.81584 0.084,3.81584 2.7,0.50864 c 1.485,0.27975 3.105,0.48637 3.6,0.45916 l 0.9,-0.0495 0.0842,-3.85816 z m -8.3268,2.64923 c 0.42582,-0.51308 0.24214,-7.22036 -0.20957,-7.65248 -0.13631,-0.1304 -1.73284,-0.28216 -3.54784,-0.33724 l -3.3,-0.10016 -0.084,3.64506 -0.084,3.64505 2.934,0.50471 c 1.6137,0.2776 3.069,0.55015 3.234,0.60567 0.55326,0.18617 0.67473,0.15049 1.05741,-0.31061 z m -8.24241,-1.02476 c 0.1654,-0.16465 0.22206,-1.76978 0.135,-3.825 l -0.15,-3.54131 -3,-0.173 c -1.65,-0.0951 -3.13031,-0.0593 -3.28958,0.0796 -0.15927,0.13892 -0.34257,1.57191 -0.40734,3.18443 -0.0892,2.22083 -0.019,3.01151 0.28958,3.26033 0.22404,0.18067 1.48734,0.53317 2.80734,0.78334 2.98396,0.56552 3.26169,0.58331 3.615,0.23163 z m -7.42983,-4.29311 c 0.0823,-3.11739 0.0619,-3.23616 -0.6,-3.5028 -0.56793,-0.22877 -17.15902,-1.53456 -19.36017,-1.52372 -0.64993,0.003 -0.675,0.10396 -0.675,2.71274 0,1.89571 0.11262,2.74986 0.375,2.84408 0.20625,0.0741 1.9275,0.34305 3.825,0.59774 1.8975,0.2547 6.0825,0.85123 9.3,1.32563 3.2175,0.47441 6.12,0.84243 6.45,0.81784 0.55428,-0.0413 0.60649,-0.2906 0.68517,-3.27151 z m 27.80974,34.56856 c -0.20345,-0.32919 0.34934,-1.19176 0.76374,-1.19176 0.28801,0 0.0136,1.15081 -0.32413,1.35957 -0.13368,0.0826 -0.33151,0.007 -0.43961,-0.16781 z m 1.58009,6.31153 c 1.35463,-0.82593 1.2279,-1.02784 -0.15,-0.23897 -1.38585,0.79343 -1.44191,0.83596 -1.1,0.83456 0.15125,-6e-4 0.71375,-0.26863 1.25,-0.59559 z"
         id="path4224"
         inkscape:connector-curvature="0" />
      <path
         style="fill:#a7a396"
         d="m 372.67879,547.78872 c -14.99917,-5.25915 -27.38335,-9.73891 -27.5204,-9.95502 -0.13706,-0.2161 -0.25126,-0.61583 -0.25379,-0.88828 -0.003,-0.27246 -0.45857,-0.76323 -1.01343,-1.09061 -0.92493,-0.54571 -1.67591,-1.97928 -1.25654,-2.39865 0.18766,-0.18766 3.73598,0.99301 11.25414,3.74472 5.27884,1.93209 6.31221,2.38869 4.66063,2.0593 -0.49467,-0.0987 -0.0226,0.17089 1.04897,0.59898 1.0716,0.42809 2.0166,0.85324 2.1,0.94478 0.15118,0.16594 -1.68825,-0.11217 -2.64466,-0.39984 -0.27704,-0.0833 -0.1136,0.0738 0.36319,0.34911 1.1131,0.64282 21.91004,8.18097 26.98201,9.78003 2.12449,0.66979 4.5887,1.53887 5.47602,1.93129 0.88732,0.39241 2.97759,1.18835 4.64505,1.76876 l 3.03175,1.05528 1.3396,-1.0977 c 4.94077,-4.04859 10.62134,-13.39898 12.43785,-20.47308 0.83934,-3.26864 0.68966,-3.23752 -0.59157,0.12299 -1.04663,2.74518 -2.39213,5.64646 -2.42434,5.22755 -0.007,-0.0948 0.32903,-1.17485 0.74738,-2.4 0.7611,-2.22888 1.44786,-5.07241 1.76974,-7.32755 0.0942,-0.66 -0.3559,0.36681 -1.00022,2.2818 -1.11056,3.30069 -2.3881,6.20271 -2.4169,5.49017 -0.007,-0.18042 0.2455,-1.08012 0.56175,-1.99934 0.65931,-1.9163 1.4183,-5.61276 1.6473,-8.02263 l 0.15679,-1.65 -0.47535,1.7392 c -0.26144,0.95656 -0.53772,1.67682 -0.61396,1.60059 -0.0762,-0.0762 0.0335,-1.19638 0.24384,-2.4892 0.44544,-2.73771 0.40339,-28.26316 -0.0473,-28.72666 -0.14765,-0.15184 -13.53622,-0.98845 -29.75238,-1.85914 -16.21616,-0.87068 -30.15893,-1.62395 -30.98393,-1.67392 l -1.5,-0.0909 0,-3.56762 c 0,-3.4574 0.0232,-3.58478 0.75,-4.1229 0.71862,-0.53203 2.09249,-0.5558 32.83115,-0.56789 37.58374,-0.0148 33.20552,-0.57541 33.51206,4.29109 0.30948,4.91309 0.27571,30.85608 -0.0464,35.61732 -0.36087,5.33488 -0.91393,8.39629 -2.2679,12.55381 -1.29001,3.96111 -3.18316,7.72188 -5.75963,11.44163 -2.07763,2.99954 -6.60033,7.81867 -7.30576,7.78457 -0.22746,-0.011 -12.68562,-4.32292 -27.68479,-9.58207 z m 17.88487,0.94775 c -0.24869,-0.15779 0.23235,-0.38182 1.35,-0.62874 0.95499,-0.21098 2.50853,-0.70611 3.45231,-1.10028 0.94378,-0.39417 2.248,-0.71667 2.89827,-0.71667 0.65027,0 2.03809,-0.26825 3.08405,-0.59613 2.23629,-0.701 2.13754,-0.68543 1.89907,-0.29958 -0.42464,0.68709 -2.66463,1.50072 -6.93451,2.51881 -4.83733,1.15339 -5.15595,1.19898 -5.74919,0.82259 z m -1.56365,-1.45684 c 0,-0.1536 0.71099,-0.50339 1.57997,-0.77731 0.86898,-0.27393 2.41568,-1.04108 3.43711,-1.70479 1.69841,-1.1036 2.03132,-1.20758 3.89503,-1.21654 1.80449,-0.009 3.19221,-0.3398 5.63789,-1.34527 1.11194,-0.45714 -0.24763,0.80813 -2.00435,1.86534 -2.29987,1.38407 -12.54565,3.97995 -12.54565,3.17857 z"
         id="path4222"
         inkscape:connector-curvature="0" />
      <path
         style="fill:#a68f71"
         d="m 372.39951,547.37929 c -25.93726,-9.1039 -28.23174,-10.01123 -26.75229,-10.57895 0.26896,-0.10321 8.20795,2.55239 18.03676,6.03331 9.65598,3.41972 19.67352,6.92854 22.26118,7.79738 2.58767,0.86885 6.56353,2.27273 8.83526,3.11974 2.27172,0.84701 4.3731,1.54001 4.66973,1.54001 0.62636,0 5.38388,-4.78508 7.15854,-7.2 2.00106,-2.723 5.05453,-8.36049 6.20817,-11.4619 0.59573,-1.60154 1.08315,-3.04483 1.08315,-3.20729 0,-0.16247 0.12157,-0.37053 0.27014,-0.46235 0.32607,-0.20152 -0.40581,3.18737 -1.22701,5.68154 -1.72002,5.22407 -5.45042,11.32007 -9.5004,15.525 -2.15541,2.23788 -2.66575,2.62078 -3.4605,2.59639 -0.51273,-0.0158 -12.92496,-4.23804 -27.58273,-9.38288 z m 22.83224,0.0997 c 1.19347,-0.53016 4.60244,-1.17249 4.26826,-0.80424 -0.16555,0.18243 -4.90088,1.42863 -5.29998,1.3948 -0.13751,-0.0116 0.32677,-0.27741 1.03172,-0.59056 z m -3.38174,-0.93911 c 0.33,-0.18294 1.34542,-0.83383 2.25647,-1.44642 1.56387,-1.05153 1.82006,-1.12235 4.58264,-1.26685 2.3156,-0.12112 2.81503,-0.0789 2.39353,0.20213 -0.81996,0.54679 -2.03022,0.94977 -5.84257,1.94537 -3.7944,0.99092 -4.31316,1.0775 -3.39007,0.56577 z m 22.2257,-39.32414 c -0.25067,-4.76845 -0.75033,-6.44306 -0.8056,-2.7 -0.0585,3.96011 -0.46406,3.61261 -0.70027,-0.6 -0.12721,-2.26875 -0.35246,-4.125 -0.50056,-4.125 -0.1481,0 -0.26927,-0.47584 -0.26927,-1.05742 0,-0.82357 -0.14928,-1.11193 -0.675,-1.30387 -0.37125,-0.13554 -14.31,-0.96511 -30.975,-1.84348 -16.665,-0.87837 -30.60375,-1.70579 -30.975,-1.83871 -0.64218,-0.22992 -0.675,-0.39583 -0.675,-3.41273 0,-2.96681 0.0474,-3.21849 0.73636,-3.90743 l 0.73637,-0.73636 31.58864,-0.0475 c 17.37375,-0.0262 31.83752,-0.0255 32.14171,0.001 0.30419,0.0269 0.80678,0.35208 1.11687,0.72254 0.52929,0.63235 0.55603,1.18752 0.43692,9.07356 -0.0698,4.62 -0.3082,10.2225 -0.52983,12.45 l -0.40295,4.05 -0.24839,-4.725 z"
         id="path4220"
         inkscape:connector-curvature="0" />
      <path
         style="fill:#de5416"
         d="m 392.00001,554.11806 c -4.0425,-1.42873 -15.99,-5.61887 -26.55,-9.31142 -10.56,-3.69255 -19.36875,-6.84324 -19.575,-7.00153 -0.5251,-0.40299 -0.46702,-0.81433 0.11498,-0.81433 0.44877,0 30.6355,10.51103 46.54448,16.20681 3.67646,1.31626 6.81267,2.39319 6.96938,2.39319 0.49785,0 4.52889,-3.96698 6.34615,-6.2453 1.73511,-2.17533 5.29317,-7.9546 6.49809,-10.5547 1.01947,-2.19991 0.422,0.0526 -0.77574,2.92459 -2.56709,6.15552 -9.46663,15.15068 -11.53449,15.0379 -0.37831,-0.0206 -3.99535,-1.20648 -8.03785,-2.63521 z m 12.6,-57.53237 c -0.7425,-0.0552 -12.8925,-0.70689 -27,-1.44832 -14.1075,-0.74142 -26.35875,-1.42492 -27.225,-1.5189 l -1.575,-0.17086 0,-3.12842 c 0,-2.63413 0.0869,-3.21535 0.55025,-3.67866 0.5242,-0.5242 2.06687,-0.5599 32.57372,-0.75395 l 32.02347,-0.20369 0.57413,0.67895 c 0.31577,0.37342 0.54134,1.01644 0.50128,1.42894 -0.0688,0.70857 -0.17227,0.75 -1.87285,0.75 l -1.8,0 -0.0835,4.125 -0.0835,4.125 -2.61653,-0.0524 c -1.4391,-0.0288 -3.22404,-0.0975 -3.96654,-0.15268 z"
         id="path4218"
         inkscape:connector-curvature="0" />
      <path
         style="fill:#da351a"
         d="m 392.00001,554.11806 c -4.0425,-1.42873 -15.99,-5.61887 -26.55,-9.31142 -10.56,-3.69255 -19.36875,-6.84324 -19.575,-7.00153 -0.5251,-0.40299 -0.46702,-0.81433 0.11498,-0.81433 0.44877,0 30.6355,10.51103 46.54448,16.20681 3.67646,1.31626 6.81267,2.39319 6.96938,2.39319 0.49785,0 4.52889,-3.96698 6.34615,-6.2453 1.73511,-2.17533 5.29317,-7.9546 6.49809,-10.5547 1.01947,-2.19991 0.422,0.0526 -0.77574,2.92459 -2.56709,6.15552 -9.46663,15.15068 -11.53449,15.0379 -0.37831,-0.0206 -3.99535,-1.20648 -8.03785,-2.63521 z m -42.9,-65.84055 c 0,-0.72229 0.16875,-1.45272 0.375,-1.62317 0.24468,-0.20222 7.25582,-0.37164 20.175,-0.48754 10.89,-0.0977 25.30381,-0.25655 32.0307,-0.35302 l 12.23069,-0.17541 0.59215,0.70121 c 0.32569,0.38566 0.55937,1.0387 0.51931,1.4512 -0.0702,0.72325 -0.14506,0.74856 -2.09785,0.70964 -1.79792,-0.0358 -2.025,0.023 -2.025,0.525 0,0.55015 -0.83105,0.56536 -30.9,0.56536 l -30.9,0 0,-1.31327 z"
         id="path4216"
         inkscape:connector-curvature="0" />
      <path
         style="fill:#615f59"
         d="m 392.00001,554.11806 c -4.0425,-1.42873 -15.99,-5.61887 -26.55,-9.31142 -10.56,-3.69255 -19.36875,-6.84324 -19.575,-7.00153 -0.5251,-0.40299 -0.46702,-0.81433 0.11498,-0.81433 0.44877,0 30.6355,10.51103 46.54448,16.20681 3.67646,1.31626 6.81267,2.39319 6.96938,2.39319 0.49785,0 4.52889,-3.96698 6.34615,-6.2453 1.73511,-2.17533 5.29317,-7.9546 6.49809,-10.5547 1.01947,-2.19991 0.422,0.0526 -0.77574,2.92459 -2.56709,6.15552 -9.46663,15.15068 -11.53449,15.0379 -0.37831,-0.0206 -3.99535,-1.20648 -8.03785,-2.63521 z m 19.20038,-66.33553 c -6e-4,-1.21723 0.79507,-2.09311 1.89163,-2.08232 1.11472,0.011 2.10376,1.11166 1.95284,2.17332 -0.0865,0.60836 -0.2603,0.66725 -1.96947,0.66725 -1.80494,0 -1.87464,-0.0282 -1.875,-0.75825 z"
         id="path4214"
         inkscape:connector-curvature="0" />
    </g>
  </g>
</svg>
