<?xml version="1.0" encoding="UTF-8" standalone="no"?>
<svg
   xmlns:dc="http://purl.org/dc/elements/1.1/"
   xmlns:cc="http://creativecommons.org/ns#"
   xmlns:rdf="http://www.w3.org/1999/02/22-rdf-syntax-ns#"
   xmlns:svg="http://www.w3.org/2000/svg"
   xmlns="http://www.w3.org/2000/svg"
   xmlns:xlink="http://www.w3.org/1999/xlink"
   xmlns:sodipodi="http://sodipodi.sourceforge.net/DTD/sodipodi-0.dtd"
   xmlns:inkscape="http://www.inkscape.org/namespaces/inkscape"
   width="76"
   height="54"
   id="svg2"
   version="1.1"
   inkscape:version="0.91 r13725"
   sodipodi:docname="mail_error.svg">
  <metadata
     id="metadata12">
    <rdf:RDF>
      <cc:Work
         rdf:about="">
        <dc:format>image/svg+xml</dc:format>
        <dc:type
           rdf:resource="http://purl.org/dc/dcmitype/StillImage" />
      </cc:Work>
    </rdf:RDF>
  </metadata>
  <defs
     id="defs10">
    <linearGradient
       id="linearGradient4135">
      <stop
         style="stop-color:#0099ff;stop-opacity:1;"
         offset="0"
         id="stop4137" />
      <stop
         style="stop-color:#00bfff;stop-opacity:0.60000002;"
         offset="1"
         id="stop4139" />
    </linearGradient>
    <linearGradient
       inkscape:collect="always"
       xlink:href="#linearGradient4135"
       id="linearGradient4141"
       x1="83.779579"
       y1="-8.574584"
       x2="3.9159408"
       y2="50.710178"
       gradientUnits="userSpaceOnUse" />
    <linearGradient
       inkscape:collect="always"
       xlink:href="#linearGradient4135"
       id="linearGradient4149"
       x1="85.1772"
       y1="-8.9995174"
       x2="3.0013661"
       y2="50.999519"
       gradientUnits="userSpaceOnUse" />
  </defs>
  <sodipodi:namedview
     pagecolor="#ffffff"
     bordercolor="#666666"
     borderopacity="1"
     objecttolerance="10"
     gridtolerance="10"
     guidetolerance="10"
     inkscape:pageopacity="0"
     inkscape:pageshadow="2"
     inkscape:window-width="1920"
     inkscape:window-height="1021"
     id="namedview8"
     showgrid="false"
     fit-margin-top="0"
     fit-margin-left="0"
     fit-margin-right="0"
     fit-margin-bottom="0"
     showguides="true"
     inkscape:guide-bbox="true"
     inkscape:zoom="3.9598616"
     inkscape:cx="50.872314"
     inkscape:cy="17.155012"
     inkscape:window-x="-2"
     inkscape:window-y="32"
     inkscape:window-maximized="1"
     inkscape:current-layer="g3763" />
  <g
     id="g3763"
     transform="translate(-6,6)">
    <rect
       y="-8.8813553"
       x="3.4237289"
       id="rect4"
       rx="0"
       height="59.898304"
       width="80.669495"
       style="fill:url(#linearGradient4141);fill-opacity:1" />
    <path
       id="path6"
       d="M 3,-9 H 85 V 51 H 3 z m 0,0 37,37 q 4,3 8,0 L 85,-9 M 3,51 33,21 m 22,0 30,30"
       inkscape:connector-curvature="0"
       style="stroke:#ffffff;stroke-width:6;fill-opacity:1;fill:url(#linearGradient4149)" />
    <path
       id="QuestionMark"
       d="m 51.523701,29.203095 c -0.121586,-0.487996 -0.322281,-0.952965 -0.27287,-1.471221 0.230951,-2.416707 2.901102,-3.872949 4.825318,-4.860833 2.119464,-1.087914 4.263788,-2.127509 6.384585,-3.212666 2.637662,-1.349759 5.842166,-2.819598 6.536693,-6.028096 0.126035,-0.581861 0.132469,-1.210904 0.09441,-1.805421 C 68.799025,7.2402382 64.577994,4.0939892 60.878492,2.0998998 57.571607,0.317469 53.92017,-0.9231177 50.274572,-1.7899508 46.78457,-2.6198093 43.259506,-3.2832903 39.670615,-3.4404296 c -2.557127,-0.1119691 -5.115282,0.1256061 -7.633729,0.5461544 -2.809466,0.469155 -5.680722,0.9850887 -8.355472,1.9948107 -1.052148,0.3972065 -2.395964,0.9212643 -3.008659,1.9271433 -0.201419,0.3306648 -0.40833,0.9894197 -0.15561,1.3518631 0.107761,0.1545377 0.34118,0.2667432 0.499396,0.3635264 0.333084,0.2038132 0.66446,0.4098936 0.999331,0.6108152 1.983909,1.1903426 4.145015,2.1964053 6.329057,2.9617779 0.849759,0.2978024 1.700995,0.5877191 2.553824,0.8766081 0.247895,0.083925 0.499448,0.1547877 0.7495,0.2314804 0.08721,0.026708 0.210281,0.093837 0.302851,0.07376 0.115673,-0.025075 0.222795,-0.1950354 0.296083,-0.2795743 0.19437,-0.2241832 0.411996,-0.4290035 0.626077,-0.6342574 0.589045,-0.5647098 1.317145,-1.0596496 2.050558,-1.4169161 0.597646,-0.2910974 1.217951,-0.5537036 1.859854,-0.7317979 3.477767,-0.9648833 8.373237,-0.8388582 10.325562,2.7552174 0.149593,0.2753689 0.247412,0.587325 0.32713,0.8882864 0.116715,0.440615 0.212485,0.928505 0.168606,1.387952 -0.129175,1.352054 -1.177482,2.584314 -2.076206,3.525303 -1.906164,1.995818 -4.193089,3.542054 -6.193767,5.432927 -0.992049,0.937646 -2.106967,1.979945 -2.605682,3.2835 -0.249948,0.653254 -0.03497,1.330955 0.144703,1.970897 0.371488,1.323274 0.941748,2.597963 1.484101,3.858506 0.162475,0.377519 0.318786,0.75837 0.475793,1.138119 0.07432,0.179881 0.138411,0.428879 0.267567,0.576829 0.270742,0.309796 1.03961,0.431373 1.42964,0.473292 1.632014,0.174622 3.330732,0.0048 4.968872,0.0048 1.298285,0 2.592142,-0.07548 3.886268,-0.16406 0.666217,-0.0455 1.543947,-0.0186 2.13744,-0.363366 m -3.275568,6.424045 c -1.780424,0.234507 -3.524172,0.497437 -5.10766,1.411827 -1.239771,0.716183 -1.712507,2.106576 -1.084042,3.406587 0.190145,0.393289 0.507378,0.78969 0.83421,1.077599 0.983648,0.865756 2.224418,1.370193 3.442122,1.803453 2.096086,0.746164 4.299599,1.144004 6.523371,1.144004 0.69981,0 1.417654,0.01975 2.109686,-0.09219 0.357257,-0.05812 0.729781,-0.09527 1.082573,-0.178548 1.192301,-0.281477 2.391719,-0.54241 3.44212,-1.206399 0.675647,-0.427497 1.239156,-1.055068 1.327768,-1.881731 0.0313,-0.292587 -0.0087,-0.575502 -0.06606,-0.860532 -0.07107,-0.352542 -0.215196,-0.706524 -0.426939,-0.999099 -0.282033,-0.389966 -0.619362,-0.721735 -1.001329,-1.013429 -0.836101,-0.638242 -1.8251,-1.040971 -2.803657,-1.400167 -1.6694,-0.612363 -3.424324,-0.976341 -5.190911,-1.144564 -0.98572,-0.09382 -2.09386,-0.196758 -3.081251,-0.06683 z"
       style="fill:#ff5c00;fill-opacity:1"
       inkscape:connector-curvature="0" />
  </g>
</svg>
